<svg width="1216" height="1215" viewBox="0 0 1216 1215" fill="none" xmlns="http://www.w3.org/2000/svg">
<g opacity="0.3">
<g clip-path="url(#clip0_324_7874)">
<path opacity="0.5" d="M675.595 667.422C558.921 798.209 365.915 809.218 235.127 692.545C104.339 575.872 93.3306 382.866 210.004 252.078C326.677 121.29 519.683 110.281 650.471 226.954C781.259 343.628 792.268 536.634 675.595 667.422Z" stroke="#2F9BA7"/>
<path opacity="0.5" d="M614.198 697.054C439.217 707.035 294.957 578.344 284.976 403.362C274.995 228.381 403.687 84.1205 578.669 74.1399C753.65 64.1593 897.91 192.851 907.891 367.832C917.872 542.814 789.18 687.074 614.198 697.054Z" stroke="#2F9BA7"/>
<path opacity="0.5" d="M549.832 674.595C419.044 557.922 408.036 364.916 524.709 234.128C641.382 103.34 834.388 92.331 965.176 209.004C1095.96 325.677 1106.97 518.683 990.3 649.471C873.626 780.259 680.62 791.268 549.832 674.595Z" stroke="#2F9BA7"/>
<path opacity="0.5" d="M520.198 613.199C510.217 438.217 638.909 293.957 813.89 283.976C988.872 273.996 1133.13 402.687 1143.11 577.669C1153.09 752.65 1024.4 896.91 849.42 906.891C674.439 916.872 530.179 788.18 520.198 613.199Z" stroke="#2F9BA7"/>
<path opacity="0.5" d="M542.655 548.831C659.329 418.043 852.335 407.035 983.123 523.708C1113.91 640.381 1124.92 833.387 1008.25 964.175C891.573 1094.96 698.567 1105.97 567.779 989.299C436.991 872.625 425.982 679.619 542.655 548.831Z" stroke="#2F9BA7"/>
<path opacity="0.5" d="M604.055 519.198C779.037 509.217 923.297 637.909 933.278 812.89C943.258 987.872 814.567 1132.13 639.585 1142.11C464.604 1152.09 320.344 1023.4 310.363 848.42C300.382 673.439 429.074 529.179 604.055 519.198Z" stroke="#2F9BA7"/>
<path opacity="0.5" d="M668.422 541.658C799.21 658.331 810.218 851.337 693.545 982.125C576.872 1112.91 383.866 1123.92 253.078 1007.25C122.29 890.575 111.281 697.569 227.954 566.782C344.628 435.994 537.634 424.985 668.422 541.658Z" stroke="#2F9BA7"/>
<path opacity="0.5" d="M698.052 603.054C708.033 778.036 579.341 922.296 404.36 932.277C229.378 942.257 85.1178 813.566 75.1372 638.584C65.1565 463.603 193.848 319.343 368.83 309.362C543.811 299.381 688.071 428.073 698.052 603.054Z" stroke="#2F9BA7"/>
</g>
</g>
<defs>
<clipPath id="clip0_324_7874">
<rect width="1216" height="1215" fill="white"/>
</clipPath>
</defs>
</svg>
