<svg width="1024" height="964" viewBox="0 0 1024 964" fill="none" xmlns="http://www.w3.org/2000/svg">
<g opacity="0.4">
<g opacity="0.1">
<path opacity="0.5" d="M344.781 302.099C428.928 207.773 568.136 199.832 662.463 283.979C756.789 368.126 764.729 507.334 680.583 601.661C596.436 695.988 457.227 703.928 362.901 619.781C268.574 535.634 260.634 396.426 344.781 302.099Z" fill="#00AFB9" fill-opacity="0.2"/>
<path opacity="0.5" d="M524.365 675.813C398.165 683.011 294.116 590.19 286.918 463.991C279.719 337.791 372.54 233.741 498.74 226.543C624.94 219.345 728.989 312.165 736.187 438.365C743.385 564.565 650.565 668.615 524.365 675.813Z" fill="#00AFB9" fill-opacity="0.2"/>
<path opacity="0.5" d="M661.901 284.781C756.227 368.928 764.168 508.136 680.021 602.463C595.874 696.789 456.666 704.729 362.339 620.583C268.012 536.436 260.072 397.227 344.219 302.901C428.366 208.574 567.574 200.634 661.901 284.781Z" fill="#00AFB9" fill-opacity="0.2"/>
<path opacity="0.5" d="M735.813 438.635C743.011 564.835 650.19 668.884 523.991 676.082C397.791 683.281 293.741 590.46 286.543 464.26C279.345 338.06 372.165 234.011 498.365 226.813C624.565 219.615 728.615 312.435 735.813 438.635Z" fill="#00AFB9" fill-opacity="0.2"/>
<path opacity="0.5" d="M680.219 601.901C596.072 696.227 456.864 704.168 362.537 620.021C268.211 535.874 260.271 396.666 344.417 302.339C428.564 208.012 567.773 200.072 662.099 284.219C756.426 368.366 764.366 507.574 680.219 601.901Z" fill="#00AFB9" fill-opacity="0.2"/>
<path opacity="0.5" d="M524.365 675.813C398.165 683.011 294.116 590.19 286.918 463.991C279.719 337.791 372.54 233.741 498.74 226.543C624.94 219.345 728.989 312.165 736.187 438.365C743.385 564.565 650.565 668.615 524.365 675.813Z" fill="#00AFB9" fill-opacity="0.2"/>
<path opacity="0.5" d="M362.099 620.219C267.773 536.072 259.832 396.864 343.979 302.537C428.126 208.211 567.334 200.271 661.661 284.417C755.988 368.564 763.928 507.773 679.781 602.099C595.634 696.426 456.426 704.366 362.099 620.219Z" fill="#00AFB9" fill-opacity="0.2"/>
<path opacity="0.5" d="M287.187 464.365C279.989 338.165 372.81 234.116 499.009 226.918C625.209 219.719 729.259 312.54 736.457 438.74C743.655 564.94 650.835 668.989 524.635 676.187C398.435 683.385 294.385 590.565 287.187 464.365Z" fill="#00AFB9" fill-opacity="0.2"/>
<path opacity="0.5" d="M287.187 464.365C279.989 338.165 372.81 234.116 499.009 226.918C625.209 219.719 729.259 312.54 736.457 438.74C743.655 564.94 650.835 668.989 524.635 676.187C398.435 683.385 294.385 590.565 287.187 464.365Z" fill="#00AFB9" fill-opacity="0.3"/>
</g>
</g>
</svg>
