<svg width="196" height="208" viewBox="0 0 196 208" fill="none" xmlns="http://www.w3.org/2000/svg">
<path d="M54.4223 196.706C57.4858 200.71 63.5417 205.827 63.1788 206.192C62.8159 206.557 56.5437 203.487 52.9629 200.719C49.6938 198.192 48.3519 196.197 45.6659 193.057C42.7575 189.657 41.2674 187.623 38.7337 183.936C34.9003 178.357 33.1065 174.979 29.9772 168.977C27.0007 163.267 25.5471 159.95 23.045 154.018C19.8566 146.458 18.325 142.106 15.748 134.316C14.3891 130.208 13.6968 127.882 12.4643 123.735C10.3176 116.512 8.97127 112.488 7.3564 105.128C6.54795 101.443 6.24456 99.3461 5.53214 95.6415C4.1073 88.2324 2.81787 84.1561 1.88362 76.6692C1.15832 70.8569 0.755419 67.5676 0.78906 61.7103C0.820254 56.2792 0.871314 53.182 1.88362 47.8459C2.51487 44.5185 2.97039 42.6567 4.07273 39.4543C5.13229 36.3762 7.3564 31.7924 7.3564 31.7924C7.3564 31.7924 9.72949 27.1456 11.7346 24.4954C13.7416 21.8427 15.0228 20.4294 17.5723 18.2929C19.9348 16.3131 21.4443 15.4102 24.1396 13.9147C27.6569 11.963 29.8 11.1438 33.6258 9.90129C37.1098 8.76972 41.6505 7.82008 42.7471 7.71218C43.8436 7.60427 52.5961 8.07706 52.2332 8.44188C51.8703 8.8067 48.874 9.24883 46.7604 9.90129C42.058 11.3529 39.3917 12.2625 35.0852 14.6444C30.0978 17.4028 27.2778 19.2149 23.4099 23.4008C19.1147 28.0491 17.1609 31.31 15.0183 37.2652C12.5891 44.0168 12.9203 48.3331 12.8292 55.5078C12.7273 63.5319 13.7639 68.0134 15.0183 75.9395C17.152 89.4219 20.0246 96.647 23.4099 109.871C26.1869 120.718 27.5687 126.851 30.7069 137.6C35.1268 152.738 36.9793 161.54 43.4768 175.909C47.2581 184.272 48.8454 189.417 54.4223 196.706Z" fill="white" stroke="white" stroke-width="0.729704"/>
<path d="M141.633 196.705C138.57 200.709 133.593 206.556 133.956 206.921C134.318 207.286 139.512 203.487 143.093 200.719C146.362 198.191 147.704 196.197 150.39 193.057C153.298 189.657 154.788 187.623 157.322 183.935C161.155 178.356 162.949 174.979 166.078 168.976C169.055 163.267 170.509 159.95 173.011 154.018C176.199 146.457 177.731 142.105 180.308 134.315C181.667 130.208 182.359 127.882 183.591 123.735C185.738 116.512 187.084 112.488 188.699 105.127C189.508 101.443 189.811 99.3458 190.524 95.6412C191.948 88.2321 193.238 84.1557 194.172 76.6689C194.897 70.8565 195.3 67.5673 195.267 61.71C195.235 56.2788 195.184 53.1816 194.172 47.8456C193.55 44.5652 192.994 43.3143 191.66 40.3142L191.602 40.1839C190.143 36.9002 190.175 36.9321 189.048 35.0759C187.323 32.2354 186.326 30.7939 184.321 28.1437C182.314 25.4911 181.033 24.0777 178.483 21.9413C176.121 19.9614 174.611 19.0586 171.916 17.563C168.399 15.6114 166.256 14.7922 162.43 13.5497C158.946 12.4181 155.482 11.5743 153.309 11.3605C151.135 11.1468 143.46 11.7254 143.822 12.0902C144.185 12.4551 147.182 12.8972 149.295 13.5497C153.998 15.0013 156.664 15.9109 160.971 18.2927C165.958 21.0511 168.778 22.8633 172.646 27.0492C176.941 31.6975 178.895 34.9584 181.037 40.9136C183.467 47.6652 183.5 48.6977 183.591 55.8724C183.692 63.7805 183.041 67.8933 181.821 75.5979L181.767 75.9392C179.633 89.4216 177.49 96.6466 174.105 109.87C171.328 120.718 169.217 126.85 166.078 137.599C161.659 152.737 159.076 161.539 152.579 175.909C148.798 184.271 147.21 189.416 141.633 196.705Z" fill="white" stroke="white" stroke-width="0.729704"/>
<path d="M29.9736 23.7655C26.7792 27.2187 22.6758 33.2516 23.0414 33.6165C23.4069 33.9813 29.0529 29.4406 33.2572 27.414C36.8326 25.6905 39.0026 25.0922 42.7434 23.7655C49.7534 21.2792 53.766 20.0797 60.986 18.2927C69.151 16.2717 73.8351 15.5662 82.1474 14.2793C90.3734 13.0058 95.045 12.7247 103.309 11.7253C112.713 10.588 117.943 9.51161 127.389 8.80652C135.067 8.23342 139.392 8.04797 147.091 8.07681C151.938 8.09497 158.767 8.80648 159.496 8.44167C160.225 8.07685 153.294 4.42826 153.294 4.42826C153.294 4.42826 146.285 2.04153 141.253 1.50948C133.035 0.640456 128.351 1.23392 120.092 1.50948C109.094 1.87641 102.957 2.69742 91.9984 3.69859C83.5836 4.46734 78.7813 4.35205 70.4721 5.8877C64.1175 7.06212 60.5639 7.90212 54.4186 9.90107C48.5813 11.7999 39.8246 15.7387 39.8246 15.7387C39.8246 15.7387 33.3433 20.1226 29.9736 23.7655Z" fill="white" stroke="white" stroke-width="0.729704"/>
<path d="M20.2158 63.1413C20.6239 65.6216 21.3679 67.9307 22.0572 68.2013C22.2976 68.2957 22.6928 64.1077 23.5313 61.6048C23.998 60.2116 24.3459 59.4604 24.9293 58.1119C25.6496 56.447 26.0497 55.5069 26.9177 53.9141C28.082 51.7776 29.1066 49.8681 30.053 48.5444C31.8137 46.0817 32.7949 45.0265 34.7698 42.732C36.4869 40.7371 37.8509 39.5309 39.7979 37.8091L39.9206 37.7006C41.6075 36.2087 43.1305 34.9633 45.0068 33.718C47.0636 32.3529 49.8951 30.9367 49.8951 30.9367C49.8951 30.9367 53.2635 29.3997 55.4678 28.5262C57.5254 27.7109 60.2996 26.8942 60.7947 26.5917C61.2898 26.2892 57.2721 25.8169 54.9767 25.6342C52.7978 25.4608 51.5521 25.3938 49.3796 25.6342C47.5408 25.8378 46.5296 26.1226 44.74 26.5917C42.1797 27.2628 40.735 27.6898 38.3328 28.801C35.9691 29.8944 34.6758 30.6312 32.5885 32.1886C30.3708 33.8433 29.2407 34.9541 27.4333 37.0492C25.349 39.4651 24.309 40.9782 22.8672 43.8246C21.5105 46.5033 20.7223 49.4095 20.216 51.0419C19.7097 52.6743 19.8078 60.661 20.2158 63.1413Z" fill="white" stroke="white" stroke-width="0.729704"/>
<path d="M76.5503 169.653C78.858 169.045 80.9739 168.135 81.1678 167.459C81.2355 167.223 77.2416 167.225 74.8007 166.657C73.442 166.341 72.7007 166.079 71.3738 165.649C69.7356 165.118 68.8111 164.824 67.2278 164.146C65.104 163.237 63.2073 162.44 61.8712 161.664C59.3856 160.221 58.3003 159.388 55.9544 157.727C53.8722 156.253 52.6 155.053 50.7368 153.31C49.1754 151.85 47.8616 150.522 46.5163 148.86C45.0416 147.038 43.449 144.489 43.449 144.489C43.449 144.489 41.6942 141.443 40.6709 139.438C39.7157 137.566 38.6949 135.017 38.3646 134.577C38.0343 134.136 37.9483 137.976 37.9815 140.162C38.013 142.237 38.0613 143.42 38.4835 145.452C38.8408 147.172 39.2007 148.102 39.8046 149.751C40.6686 152.111 41.2017 153.438 42.4675 155.609C43.7129 157.745 44.5253 158.902 46.1846 160.735C47.9475 162.682 49.0988 163.651 51.2412 165.171C53.7116 166.925 55.235 167.772 58.0547 168.879C60.7082 169.922 63.5258 170.406 65.1141 170.738C66.7025 171.07 74.2426 170.261 76.5503 169.653Z" fill="white" stroke="white" stroke-width="0.729704"/>
<path d="M126.975 170.77C125.529 170.431 123.309 169.977 123.296 169.808C123.283 169.639 125.825 169.268 127.427 168.846C128.807 168.482 129.576 168.26 130.936 167.827C132.815 167.23 133.872 166.891 135.69 166.129L135.824 166.073C137.857 165.222 139.053 164.72 140.953 163.526C142.978 162.253 143.89 161.451 145.766 159.966C147.271 158.775 148.162 157.949 149.49 156.563C150.691 155.309 152.272 153.113 152.272 153.113C152.272 153.113 154.079 150.522 155.158 148.812C156.174 147.202 157.295 144.622 157.649 144.624C158.278 144.627 157.928 148.743 157.649 151.358C157.453 153.19 157.249 154.283 156.659 156.029C155.896 158.288 155.172 159.368 153.8 161.319C152.368 163.357 151.491 164.494 149.612 166.129C148.225 167.337 147.375 167.959 145.764 168.846C143.991 169.821 142.889 170.182 140.953 170.77C139.327 171.264 138.397 171.531 136.709 171.732C134.799 171.959 133.699 171.922 131.785 171.732C129.879 171.543 128.84 171.207 126.975 170.77Z" fill="white" stroke="white" stroke-width="0.729704"/>
<path d="M57.5427 150.352C55.5817 148.729 52.5526 145.733 52.8104 145.869C53.2948 146.124 59.2271 148.894 63.5206 150.352C68.6471 152.093 71.6194 152.891 76.9706 153.714C81.5976 154.426 84.245 154.56 88.9263 154.586C93.9957 154.615 96.8563 154.407 101.878 153.714L102.173 153.674C106.764 153.041 109.468 152.669 113.958 151.224C118.786 149.67 121.356 148.332 125.79 145.869C130.294 143.366 132.721 141.735 136.749 138.521C140.38 135.623 142.38 133.899 145.467 130.426C148.659 126.834 150.233 124.593 152.69 120.463C155.247 116.162 156.514 113.603 158.169 108.881C159.434 105.274 159.888 103.159 160.66 99.4159C161.583 94.943 161.454 88.042 161.926 87.6135C162.289 87.2831 163.992 93.2385 164.645 96.8006C165.421 101.028 165.675 103.463 165.642 107.76C165.611 111.718 165.438 113.969 164.645 117.848C163.839 121.796 163.065 123.959 161.532 127.686C159.461 132.719 157.932 135.436 154.807 139.891C152.447 143.256 151.021 145.113 148.082 147.986C145.111 150.89 143.186 152.269 139.738 154.586C135.601 157.366 133.084 158.666 128.529 160.689L128.448 160.725C124.758 162.364 122.631 163.309 118.691 164.3C114.523 165.35 112.066 165.511 107.795 165.791L107.732 165.795C103.703 166.059 101.421 166.093 97.3949 165.795C93.4233 165.5 91.1867 165.2 87.3073 164.3C84.1898 163.577 82.4967 162.949 79.4614 161.934C76.2653 160.866 74.4311 160.347 71.3664 158.945C68.1788 157.488 66.4767 156.47 63.5206 154.586C61.1078 153.049 59.7464 152.176 57.5427 150.352Z" fill="white" stroke="white" stroke-width="0.729704"/>
<path d="M29.7161 61.0395C30.0734 60.2866 32.9387 54.4205 32.806 55.2079C32.7149 55.7479 31.9351 62.2484 31.8901 66.7825C31.8364 72.1965 32.0062 75.2692 32.8948 80.61C33.6632 85.2279 33.5919 84.7842 35.0286 89.2397C36.5843 94.0645 37.6747 96.7173 39.9003 101.272L40.0311 101.54C42.0652 105.703 43.2636 108.156 46.0379 111.971C49.0209 116.072 51.0947 118.096 54.8188 121.539C58.6026 125.037 60.9098 126.834 65.2208 129.657C69.1076 132.202 71.37 133.564 75.6327 135.411C80.042 137.323 82.6617 138.119 87.3527 139.163C92.237 140.25 96.8469 140.392 101.85 140.49C105.671 140.566 107.822 140.337 111.619 139.902C116.156 139.382 122.672 137.105 123.227 137.42C123.654 137.662 118.528 141.138 115.348 142.872C111.574 144.928 109.34 145.93 105.247 147.239C101.477 148.446 97.5017 149.247 93.5697 149.705C89.5668 150.171 87.2702 150.112 83.2509 149.819C77.8234 149.423 74.7648 148.818 69.5566 147.24C65.6233 146.048 63.4135 145.273 59.7668 143.378C56.0802 141.462 54.1694 140.064 50.8913 137.512C46.959 134.45 44.9386 132.464 41.5948 128.768L41.5353 128.703C38.826 125.708 37.2646 123.983 35.0922 120.549C32.7941 116.917 31.8742 114.633 30.2747 110.663L30.2511 110.604C28.7427 106.86 27.9972 104.702 27.0241 100.784C26.0641 96.9191 25.5217 92.1017 25.4026 90.7756C25.2835 89.4494 25.1349 86.519 25.1349 85.5424C25.1349 84.5658 25.0727 80.2679 25.4473 76.9189C25.8369 73.4355 26.2726 71.5008 27.1389 68.1044C27.8459 65.3323 29.2929 61.9311 29.7161 61.0395Z" fill="white" stroke="white" stroke-width="0.729704"/>
<path d="M172.693 101.541C171.113 105.192 168.857 110.548 167.933 110.548C167.574 110.548 169.858 100.325 170.12 93.6919C170.234 90.7796 170.233 88.6419 170.011 85.7358C169.672 81.2943 169.152 79.3183 167.933 75.0342C166.42 69.7212 165.168 66.8297 162.656 61.9094C160.317 57.3264 158.759 54.8583 155.708 50.7148C152.247 46.0135 150.19 43.3687 145.8 39.5201C142.58 36.6975 140.573 35.3232 136.922 33.0864C131.669 29.8689 128.508 28.2645 122.639 26.3954C116.515 24.4449 112.839 23.9914 106.426 23.5645C102.415 23.2975 100.141 23.2708 96.132 23.5645C91.8226 23.8803 85.5247 25.4307 85.1947 25.2373C84.6514 24.9189 90.1354 22.0279 93.5586 20.4764C97.2783 18.7904 99.507 18.1309 103.467 17.1308C108.297 15.9109 111.096 15.3007 116.077 15.2006C119.857 15.1247 121.995 15.3702 125.727 15.9727C132.599 17.0818 136.431 18.3767 142.712 21.377C147.557 23.6914 150.164 25.3115 154.422 28.5827C158.285 31.5504 160.414 33.3544 163.558 37.0753C167.057 41.2175 168.581 43.9418 171.021 48.7847C173.325 53.36 174.597 56.0246 175.782 61.0087C176.857 65.5328 177.118 68.1348 177.391 72.7771C177.524 75.0342 177.528 81.521 176.751 86.9937C175.918 92.8647 175.048 96.099 172.693 101.541Z" fill="white" stroke="white" stroke-width="0.729704"/>
<path d="M83.7424 130.579C82.4305 130.027 80.1772 129.064 80.4833 128.949C80.8747 128.802 83.987 128.949 86.232 128.949C89.1664 128.949 90.8174 129.133 93.746 128.949C97.471 128.715 99.5668 128.418 103.206 127.591C107.622 126.587 110.062 125.751 114.206 123.925C117.658 122.403 119.522 121.361 122.715 119.353C125.822 117.399 127.518 116.202 130.32 113.831C133.449 111.182 135.14 109.574 137.743 106.407C140.39 103.188 141.676 101.193 143.673 97.5352C145.749 93.7339 146.873 91.5148 148.064 87.3506C149.157 83.5283 149.372 81.2644 149.693 77.3018C150.09 72.4028 150.117 69.59 149.467 64.7182C148.792 59.6524 146.094 52.509 146.208 52.044C146.322 51.579 150.835 57.8343 153.043 62.0023C154.801 65.3211 155.765 67.2513 156.755 70.8743C157.821 74.7766 157.932 77.1064 158.067 81.1495C158.192 84.8647 158.115 86.9781 157.569 90.6551C156.945 94.8666 156.387 97.248 154.808 101.202C152.543 106.873 150.464 109.799 146.525 114.464C142.493 119.239 139.797 121.693 134.53 125.056C130.057 127.912 127.278 129.208 122.218 130.805C118.158 132.086 115.757 132.431 111.535 132.978C105.537 133.754 102.069 134.021 96.0545 133.385C93.1298 133.076 91.4806 132.845 88.631 132.118C86.6918 131.623 85.5877 131.354 83.7424 130.579Z" fill="white" stroke="white" stroke-width="0.729704"/>
<path d="M80.213 121.154C82.9735 122.888 87.342 124.39 87.7898 124.655C88.2375 124.92 83.4399 125.18 80.7354 124.655C78.9426 124.308 77.9953 123.855 76.2938 123.192C74.1079 122.34 72.9079 121.775 70.8593 120.632L70.8174 120.608C68.555 119.346 67.2465 118.616 65.2681 116.922C63.1607 115.118 62.2075 113.841 60.5129 111.644C59.0851 109.793 58.3082 108.721 57.1687 106.68C55.8858 104.382 55.1665 103.046 54.4514 100.514C53.6418 97.6468 53.4234 95.8478 53.2386 92.8743C53.03 89.5181 53.0648 87.6134 53.5631 84.2628C53.9548 81.6286 54.4403 80.1855 55.3396 77.6787C56.5507 74.3027 57.4634 72.4649 59.3631 69.4225C60.9606 66.8642 61.9444 65.4508 64.0137 63.2565C64.8772 62.3409 67.3537 60.0534 69.7617 58.3446C72.2966 56.5458 77.4811 53.8449 76.9311 54.4907C76.6348 54.8388 74.2285 57.0133 72.7756 58.7444C71.1278 60.7078 70.1664 61.7174 68.7166 63.8312C66.5486 66.9924 65.7179 69.0512 64.4319 72.6623C63.3095 75.8141 62.8489 77.6636 62.3417 80.9707C61.5251 86.2958 61.3793 89.4651 62.3417 94.7658C62.8726 97.6893 63.3453 99.316 64.4319 102.081C65.7072 105.327 66.6136 107.114 68.6124 109.972C70.4027 112.531 71.6452 113.81 73.8901 115.981C76.1832 118.199 77.511 119.458 80.213 121.154Z" fill="white" stroke="white" stroke-width="0.729704"/>
<path d="M84.4738 117.619C82.9673 116.983 81.3868 116.155 80.8766 115.475C80.4528 114.911 85.5093 115.62 88.3729 115.62C91.0029 115.62 92.3826 115.554 94.9886 115.06C97.9936 114.49 99.6081 113.77 102.39 112.5C106.345 110.695 108.493 109.374 111.798 106.551C114.912 103.892 116.512 102.14 118.785 98.7342C120.751 95.7901 121.738 93.9959 122.867 90.6406C123.885 87.6125 124.269 85.8054 124.458 82.6162C124.611 80.0238 124.471 78.5473 124.112 75.9753C123.625 72.4904 121.424 67.1519 121.829 67.2592C122.853 67.5307 124.368 70.3648 125.634 72.5858C126.765 74.571 127.311 75.7519 128.055 77.9123C128.876 80.2978 129.235 81.6992 129.507 84.2074C129.882 87.6502 129.71 89.6677 129.023 93.0619C128.274 96.7653 127.525 98.8531 125.634 102.124C123.268 106.214 121.232 108.169 117.54 111.117C114.332 113.678 112.288 114.915 108.478 116.444C104.915 117.873 102.75 118.392 98.9317 118.796C95.9765 119.108 93.9628 119.254 91.0029 118.99C88.3 118.749 86.9734 118.676 84.4738 117.619Z" fill="white" stroke="white" stroke-width="0.729704"/>
<path d="M42.1507 91.5036C43.6265 93.511 45.5143 95.8928 46.2909 96.3577C46.9901 96.7762 42.7685 89.102 42.1507 84.0798C41.7764 81.0363 41.5275 77.9566 41.7075 74.8955C41.9622 70.5664 42.1907 69.1773 43.2524 64.9727C44.4666 60.1641 45.7356 57.6365 48.2897 53.3852C51.0152 48.8488 53.2319 46.6528 57.284 43.2488C60.4571 40.5831 62.493 39.3718 66.1355 37.3954C70.4855 35.035 73.0717 33.8591 77.8423 32.5413C82.9952 31.1179 92.0788 31.5881 91.405 30.6854C90.8413 29.9301 85.4537 28.9953 81.5662 28.6291C76.9035 28.1899 74.1846 28.2215 69.5619 28.9721C64.5493 29.786 61.7822 30.8985 57.284 33.2552C52.5527 35.734 49.948 37.5559 46.1045 41.2649C41.8434 45.377 39.8587 47.9847 37.4295 53.3852C35.2761 58.1723 34.4089 61.2766 34.1558 66.5197C33.9453 70.8808 34.0112 73.4417 35.1552 77.6554C35.9934 80.743 36.8297 82.3783 38.296 85.2219C39.615 87.7801 40.4459 89.1846 42.1507 91.5036Z" fill="white" stroke="white" stroke-width="0.729704"/>
<path d="M49.3873 65.0966C48.4165 68.7304 47.9598 73.6008 48.843 75.3581C49.1418 75.9525 50.5946 71.5553 51.721 69.396C53.1538 66.6494 53.8941 65.1463 55.7744 62.7631C57.6233 60.4197 58.9229 59.3127 61.179 57.3585C63.8261 55.0656 64.8295 54.4612 67.7982 52.6035C70.255 51.0662 71.8137 50.3103 74.5137 49.2573C77.4079 48.1285 79.626 47.4722 81.3752 47.1676C83.7353 46.7566 88.3053 46.4659 91.9482 46.6062C96.4225 46.7786 99.49 47.1153 101.953 47.7066C106.387 48.7715 110.273 49.831 114.242 52.0767C117.358 53.8394 118.836 55.2587 121.735 57.3585C123.958 58.9678 126.995 61.1811 127.385 61.5348C128.055 62.1412 126.158 58.9201 125.175 57.3585C123.773 55.1333 122.751 54.0368 120.998 52.0767C118.578 49.3703 116.875 48.0177 113.91 45.9219C110.634 43.6062 108.725 42.7067 105.03 41.1447C101.648 39.7149 98.4898 38.9504 96.0339 38.4971C93.6648 38.0598 88.3658 37.8462 85.5929 37.8462C84.0576 37.8462 79.9489 38.0794 76.4102 39.0565C72.6447 40.0961 70.6983 41.2701 67.3206 43.2327C64.2252 45.0313 62.4745 46.1036 59.8279 48.5144C57.2124 50.897 55.8848 52.4428 53.932 55.393C51.6223 58.8823 50.4674 61.0539 49.3873 65.0966Z" fill="white" stroke="white" stroke-width="0.729704"/>
<path d="M107.422 28.7372C103.515 28.5055 98.4548 29.056 96.8475 30.323C96.3039 30.7516 101.09 31.3153 103.526 32.0132C106.625 32.9009 108.312 33.3421 111.134 34.7618C113.908 36.1577 115.308 37.2517 117.771 39.1441C120.661 41.3644 121.486 42.2612 124 44.9001C126.079 47.084 127.175 48.5154 128.812 51.0482C130.566 53.7633 131.698 55.8876 132.374 57.6074C133.285 59.9277 134.535 64.5259 135.152 68.2691C135.91 72.8664 136.206 76.0638 136.117 78.6977C135.957 83.441 135.687 87.6231 134.226 92.1386C133.079 95.6829 131.94 97.4849 130.404 100.879C129.227 103.48 127.605 107.039 127.326 107.511C126.847 108.319 129.735 105.714 131.122 104.385C133.098 102.493 134.003 101.222 135.635 99.0258C137.889 95.9937 138.913 93.9751 140.431 90.5154C142.108 86.6927 142.627 84.559 143.449 80.4662C144.201 76.7198 144.321 73.3408 144.271 70.7426C144.223 68.2361 143.335 62.7893 142.756 59.9624C142.436 58.3973 141.341 54.2573 139.607 50.8535C137.761 47.2316 136.159 45.4923 133.453 42.4583C130.974 39.6778 129.515 38.1167 126.505 35.9216C123.531 33.7522 121.678 32.7212 118.263 31.3459C114.224 29.7192 111.769 28.9949 107.422 28.7372Z" fill="white" stroke="white" stroke-width="0.729704"/>
<path d="M67.8494 75.4991C67.31 77.7457 66.9146 80.7424 67.1414 81.4332C67.4527 82.381 69.3526 76.4052 71.5444 73.7149C73.1256 71.7738 74.0822 70.7221 76.0297 69.1488C77.6927 67.8053 78.3369 67.3918 80.1879 66.322C80.8293 65.9513 83.8909 64.3967 86.1003 63.6138C87.955 62.9565 90.0753 62.5493 91.3904 62.381C92.7055 62.2127 94.6042 62.1831 96.9266 62.3187C99.2036 62.4518 100.486 62.5713 102.728 62.9922C104.344 63.2955 105.257 63.4702 106.82 63.9764C108.837 64.6291 109.981 65.0531 111.793 66.152C113.266 67.0445 114.127 67.6784 115.49 68.6821L115.582 68.7498C116.611 69.5067 119.351 71.4954 120.289 72.3162C120.91 72.8608 119.354 70.1514 118.527 68.8974C117.494 67.3291 116.669 66.6257 115.368 65.2714C114.039 63.8887 113.317 63.1561 111.793 61.9915C109.642 60.3472 108.195 59.6642 105.733 58.5373C103.666 57.5912 101.655 57.0591 99.4352 56.5706C98.6051 56.3879 95.2617 56.0216 93.1637 56.1987C90.8111 56.3974 89.0082 56.5786 86.7288 57.1937C83.9496 57.9437 82.8059 58.3068 80.2468 59.6251C78.1768 60.6915 76.9721 61.7586 75.2415 63.3166C72.938 65.3905 72.0578 66.6061 70.4565 69.2601C69.0588 71.5769 68.4812 72.8681 67.8494 75.4991Z" fill="white" stroke="white" stroke-width="0.729704"/>
<path d="M67.3249 95.9963C66.4262 93.5132 65.9941 88.6769 66.3983 89.3333C66.9009 90.1499 67.669 91.5846 68.719 93.0696C69.879 94.7101 70.3519 95.2981 71.7139 96.7751C73.0698 98.2457 74.2012 99.3907 75.8196 100.566C77.4782 101.771 78.3501 102.594 80.2282 103.416C82.9448 104.604 85.8961 104.866 87.4886 104.903C88.9214 104.937 91.4301 104.856 93.669 104.168C95.4822 103.612 96.3953 102.99 98.0238 102.018C99.9456 100.87 102.18 99.1079 102.647 98.6308C103.115 98.1536 101.642 101.103 100.729 102.405C99.7212 103.843 99.1235 104.321 97.7012 105.351L97.5976 105.426C95.3699 107.04 93.7631 108.203 91.0308 108.684C87.7014 109.271 84.365 109.015 82.4862 108.684C80.6075 108.354 77.2333 107.354 75.8196 106.534C73.2754 105.059 72.1102 103.718 70.3357 101.373C68.8838 99.4537 68.1438 98.2591 67.3249 95.9963Z" fill="white" stroke="white" stroke-width="0.729704"/>
<path d="M110.538 98.0105C108.982 100.288 105.148 103.607 105.458 102.863C105.843 101.939 106.589 100.412 107.207 98.6158C107.889 96.6314 108.098 95.8717 108.518 93.8158C108.937 91.7691 109.216 90.1114 109.224 88.0223C109.233 85.8814 109.398 84.6401 108.948 82.547C108.296 79.5194 106.717 76.8585 105.776 75.4864C104.929 74.252 103.329 72.1757 101.38 70.6981C99.8012 69.5014 98.7171 69.1072 96.8989 68.3208C94.7533 67.3929 91.8959 66.5756 91.2061 66.4707C90.5163 66.3657 93.9143 65.8134 95.5756 65.7919C97.4093 65.7682 98.1796 65.9827 99.9204 66.5592L100.047 66.6012C102.774 67.504 104.741 68.1551 106.817 70.1766C109.347 72.6398 111.167 75.6234 112.034 77.4171C112.901 79.2107 113.494 82.3581 113.662 84.0564C113.81 85.5504 113.505 90.2488 113.059 91.6974C112.319 94.0993 111.955 95.9351 110.538 98.0105Z" fill="white" stroke="white" stroke-width="0.729704"/>
<path d="M83.1324 100.37C84.0774 101.343 85.2112 102.295 85.4485 102.516C85.7827 102.828 84.3953 102.679 83.8456 102.516C82.8605 102.226 82.2522 101.816 81.9339 101.658C81.3726 101.379 80.6139 100.805 79.6807 99.977C78.3991 98.8405 77.7058 98.1435 76.7109 96.7491C75.8803 95.5849 75.4381 94.8905 74.9033 93.5641C74.4974 92.5577 74.3509 91.9577 74.1285 90.8956C73.8169 89.4076 73.7144 88.703 73.8077 87.1855C73.8866 85.9024 74.0582 85.0368 74.3869 83.794C74.7035 82.5967 74.9067 81.9269 75.3767 80.7811C75.8989 79.5084 76.226 78.7967 76.9694 77.6392C77.6999 76.5017 78.2127 75.9286 79.1214 74.9276C80.1924 73.748 80.7977 73.0605 82.0912 72.13C83.3184 71.2472 84.076 70.8107 85.4913 70.2793C86.9882 69.7172 89.7668 69.1605 89.4941 69.4184C89.2178 69.6798 88.1763 70.4072 87.3421 71.054C86.1699 71.9627 85.4386 72.3904 84.3723 73.4213C83.249 74.5073 82.6881 75.1987 81.7899 76.4772C80.6871 78.0468 80.0796 78.9789 79.4226 80.7811C78.9256 82.1447 78.6806 82.8715 78.434 84.3017C78.2041 85.6352 78.118 86.2387 78.1614 87.5912C78.1952 88.6437 78.2794 89.4976 78.434 90.5393C78.6462 91.9689 78.7176 92.7826 79.1214 94.1667C79.4852 95.4131 79.6746 95.9888 80.3508 97.0972C81.1004 98.326 82.1293 99.3383 83.1324 100.37Z" fill="white" stroke="white" stroke-width="0.729704"/>
<path d="M82.1865 87.1068C81.8291 86.1639 81.7436 85.8712 81.6496 85.0441C81.5744 84.382 81.6129 83.6865 81.6496 83.3378C81.6592 83.2465 83.178 86.338 83.9931 87.207C84.5138 87.8318 85.4336 88.885 85.7059 89.1502C85.9329 89.3713 86.9023 90.267 87.1482 90.4704C87.4144 90.6908 88.3531 91.3833 89.1979 91.909C90.4871 92.7114 91.1234 92.9463 92.6008 93.2971C94.9024 93.8435 96.3575 93.7651 98.7022 93.4522C100.175 93.2557 102.494 92.5831 103.353 92.07C104.858 91.1716 107.003 89.5005 106.844 89.8329C106.611 90.3179 106.523 90.7575 106.174 91.3497C105.675 92.1962 105.062 92.7262 104.338 93.3905C103.863 93.8262 103.254 94.2651 102.39 94.8107C101.305 95.4952 100.586 95.7074 99.3586 96.0694L99.3492 96.0722C98.287 96.3855 97.6677 96.497 96.5674 96.6221C95.6598 96.7253 93.5737 96.5632 92.8268 96.4394C91.7563 96.2618 91.06 96.0948 90.1168 95.5581C89.269 95.0755 88.7549 94.7037 87.9732 94.1385L87.9347 94.1106C87.1464 93.5406 86.7482 93.1966 86.055 92.5142C85.428 91.8969 84.7091 90.982 84.5634 90.8037C84.3522 90.5454 83.7735 89.8197 83.3056 89.1502C82.7159 88.3064 82.5514 88.0695 82.1865 87.1068Z" fill="white" stroke="white" stroke-width="0.729704"/>
<path d="M103.59 83.9493C103.981 85.2038 104.075 87.4585 103.956 87.2939C103.558 86.7406 103.017 85.9682 102.277 85.2103C101.664 84.5833 101.248 84.0045 100.636 83.3766C99.9864 82.7096 99.2877 81.9682 99.0475 81.7802C98.6656 81.4814 97.7084 80.8896 96.8382 80.3045C95.8794 79.6597 95.2846 79.3361 94.2162 78.896C93.2601 78.5022 92.7163 78.2664 91.7018 78.066C90.7449 77.877 90.1865 77.9073 89.2117 77.8707C88.3162 77.8372 86.8407 78.066 86.9169 77.8707C87.0519 77.5248 87.989 76.9537 88.7967 76.5769C89.7144 76.1487 90.0822 76.0018 91.0867 75.8725C92.1647 75.7337 93.0222 75.7628 94.0941 75.9422C95.2212 76.1308 95.8179 76.3178 96.8526 76.8028C97.9837 77.333 98.5682 77.7773 99.5533 78.5453C100.595 79.3577 101.216 79.9221 102.006 80.9813C102.797 82.0414 103.197 82.6867 103.59 83.9493Z" fill="white" stroke="white" stroke-width="0.729704"/>
<path d="M65.2521 189.722C63.8016 196.153 66.0919 207.262 66.361 206.14C68.1993 198.479 73.1499 191.741 74.2445 190.282C75.3391 188.822 78.7686 184.613 81.4441 182.814C81.815 182.565 82.2257 182.324 82.6592 182.093C86.8622 179.854 91.7359 179.41 96.4943 179.22C97.8095 179.168 99.1244 179.154 100.439 179.215C102.537 179.313 105.76 179.522 107.288 179.927C108.826 180.334 111.177 181.21 113.659 182.814C117.225 185.121 118.854 187.015 121.609 190.217L121.664 190.282C126.335 195.71 130.083 205.257 130.577 206.07C131.574 207.709 132.364 195.795 130.5 189.66C128.876 184.317 123.801 178.082 121.091 175.881C116.375 172.051 111.869 170.267 107.548 169.376C105.252 168.903 101.579 168.696 99.6846 168.617C98.8733 168.583 98.0615 168.582 97.2496 168.596C91.29 168.7 85.2871 169.535 79.9748 172.238C78.0904 173.197 76.2153 174.304 74.7526 175.493C69.5379 179.733 66.7308 183.166 65.2521 189.722Z" fill="white" stroke="white" stroke-width="0.729704"/>
</svg>
